<?xml version="1.0" encoding="UTF-8"?>
<!DOCTYPE svg PUBLIC "-//W3C//DTD SVG 1.1//EN" "http://www.w3.org/Graphics/SVG/1.1/DTD/svg11.dtd">
<svg xmlns="http://www.w3.org/2000/svg" version="1.1" viewBox="0 0 41 41" stroke="none">
	<rect width="100%" height="100%" fill="#ffffff"/>
	<path d="M4,4h7v1h-7z M14,4h1v2h-1z M16,4h1v7h-1z M18,4h1v2h-1z M21,4h1v1h-1z M25,4h2v3h-2z M28,4h1v2h-1z M30,4h7v1h-7z M4,5h1v6h-1z M10,5h1v6h-1z M12,5h1v1h-1z M20,5h1v2h-1z M22,5h2v1h-2z M30,5h1v6h-1z M36,5h1v6h-1z M6,6h3v3h-3z M15,6h1v1h-1z M17,6h1v1h-1z M24,6h1v2h-1z M27,6h1v2h-1z M32,6h3v3h-3z M12,7h2v2h-2z M19,7h1v2h-1z M22,7h2v1h-2z M28,7h1v1h-1z M14,8h1v3h-1z M17,8h1v1h-1z M20,8h1v3h-1z M21,8h1v1h-1z M15,9h1v1h-1z M22,9h1v5h-1z M23,9h1v1h-1z M25,9h1v1h-1z M27,9h2v1h-2z M5,10h5v1h-5z M12,10h1v4h-1z M18,10h1v1h-1z M24,10h1v1h-1z M26,10h1v1h-1z M28,10h1v3h-1z M31,10h5v1h-5z M15,11h1v1h-1z M19,11h1v2h-1z M27,11h1v1h-1z M5,12h1v3h-1z M7,12h4v1h-4z M13,12h2v1h-2z M16,12h2v1h-2z M21,12h1v2h-1z M29,12h1v4h-1z M30,12h1v1h-1z M32,12h2v3h-2z M35,12h1v1h-1z M7,13h1v1h-1z M9,13h1v1h-1z M11,13h1v4h-1z M14,13h1v1h-1z M17,13h2v1h-2z M20,13h1v2h-1z M23,13h2v1h-2z M27,13h1v3h-1z M31,13h1v1h-1z M34,13h1v3h-1z M6,14h1v2h-1z M8,14h1v3h-1z M10,14h1v1h-1z M13,14h1v2h-1z M15,14h1v1h-1z M19,14h1v2h-1z M30,14h1v1h-1z M35,14h2v1h-2z M9,15h1v2h-1z M12,15h1v1h-1z M22,15h1v1h-1z M24,15h1v4h-1z M28,15h1v1h-1z M31,15h1v6h-1z M36,15h1v1h-1z M4,16h1v1h-1z M10,16h1v1h-1z M15,16h1v1h-1z M17,16h2v1h-2z M21,16h1v4h-1z M25,16h1v1h-1z M30,16h1v2h-1z M32,16h1v1h-1z M35,16h1v1h-1z M5,17h2v2h-2z M12,17h1v1h-1z M19,17h1v2h-1z M22,17h2v2h-2z M27,17h1v1h-1z M29,17h1v1h-1z M4,18h1v1h-1z M7,18h1v1h-1z M10,18h1v1h-1z M13,18h2v1h-2z M17,18h1v1h-1z M25,18h2v1h-2z M28,18h1v1h-1z M32,18h1v4h-1z M5,19h1v1h-1z M8,19h1v1h-1z M12,19h1v4h-1z M16,19h1v1h-1z M18,19h1v3h-1z M22,19h1v1h-1z M27,19h1v2h-1z M29,19h1v2h-1z M34,19h1v1h-1z M36,19h1v1h-1z M4,20h1v4h-1z M10,20h1v1h-1z M14,20h2v1h-2z M19,20h2v1h-2z M24,20h1v2h-1z M26,20h1v1h-1z M28,20h1v1h-1z M30,20h1v2h-1z M5,21h1v2h-1z M9,21h1v1h-1z M11,21h1v1h-1z M15,21h1v1h-1z M19,21h1v1h-1z M21,21h1v3h-1z M23,21h1v2h-1z M25,21h1v2h-1z M34,21h3v1h-3z M8,22h1v2h-1z M10,22h1v1h-1z M13,22h2v1h-2z M16,22h2v1h-2z M20,22h1v6h-1z M27,22h3v1h-3z M33,22h2v2h-2z M36,22h1v2h-1z M7,23h1v1h-1z M9,23h1v1h-1z M13,23h1v1h-1z M15,23h1v2h-1z M17,23h3v1h-3z M22,23h1v2h-1z M26,23h1v2h-1z M28,23h1v1h-1z M31,23h2v1h-2z M5,24h1v1h-1z M10,24h1v1h-1z M12,24h1v1h-1z M16,24h1v1h-1z M24,24h1v3h-1z M27,24h1v1h-1z M32,24h1v9h-1z M33,24h1v1h-1z M35,24h1v1h-1z M4,25h1v4h-1z M7,25h1v1h-1z M9,25h1v3h-1z M17,25h3v1h-3z M21,25h1v3h-1z M23,25h1v1h-1z M29,25h1v4h-1z M31,25h1v1h-1z M34,25h1v1h-1z M6,26h1v1h-1z M10,26h3v1h-3z M16,26h1v5h-1z M18,26h1v3h-1z M22,26h1v3h-1z M25,26h1v1h-1z M27,26h2v1h-2z M30,26h1v1h-1z M35,26h2v2h-2z M7,27h1v2h-1z M11,27h3v1h-3z M17,27h1v1h-1z M23,27h1v2h-1z M27,27h1v1h-1z M31,27h1v2h-1z M33,27h2v1h-2z M5,28h1v1h-1z M8,28h1v1h-1z M10,28h1v1h-1z M12,28h2v1h-2z M24,28h1v1h-1z M26,28h1v1h-1z M28,28h1v6h-1z M30,28h1v1h-1z M35,28h1v1h-1z M12,29h1v1h-1z M15,29h1v1h-1z M25,29h1v2h-1z M27,29h1v4h-1z M34,29h1v3h-1z M4,30h7v1h-7z M13,30h1v1h-1z M17,30h1v3h-1z M19,30h2v1h-2z M23,30h2v2h-2z M26,30h1v1h-1z M30,30h1v1h-1z M4,31h1v6h-1z M10,31h1v6h-1z M12,31h1v3h-1z M14,31h2v2h-2z M18,31h1v1h-1z M20,31h1v3h-1z M22,31h1v3h-1z M35,31h1v2h-1z M6,32h3v3h-3z M13,32h1v4h-1z M19,32h1v3h-1z M21,32h1v3h-1z M29,32h3v1h-3z M14,33h1v1h-1z M18,33h1v1h-1z M23,33h1v2h-1z M25,33h1v1h-1z M29,33h1v2h-1z M34,33h1v1h-1z M36,33h1v3h-1z M15,34h3v1h-3z M24,34h1v2h-1z M27,34h1v1h-1z M31,34h2v1h-2z M35,34h1v2h-1z M12,35h1v1h-1z M15,35h1v1h-1z M17,35h1v1h-1z M20,35h1v2h-1z M30,35h1v1h-1z M32,35h1v1h-1z M34,35h1v1h-1z M5,36h5v1h-5z M14,36h1v1h-1z M16,36h1v1h-1z M18,36h1v1h-1z M21,36h3v1h-3z M27,36h2v1h-2z M31,36h1v1h-1z M33,36h1v1h-1z" fill="#000000"/>
</svg>
